# xmcd CD database file
#
# Track frame offsets:
#	150
#	14232
#	28405
#	45991
#	64275
#	78122
#	95075
#	113920
#	130139
#	144214
#	157207
#	181007
#
# Disc length: 2607 seconds
#
# Revision: 0
# Processed by: cddbd v1.5.2PL0 Copyright (c) Steve Scherf et al.
# Submitted via: ACXtractor (MTCDDB.DLL V2003.12.21)
#
DISCID=a20a2d0c
DTITLE=Roo Arcus - Station Boy
DYEAR=1999
DGENRE=Country
TTITLE0=Big Old Things
TTITLE1=The Mechanical Bull
TTITLE2=Drovers Nightmare
TTITLE3=Station boys
TTITLE4=Rodeo Under the Stars
TTITLE5=Take Time, Make Time
TTITLE6=Rosalina
TTITLE7=Just Another Day
TTITLE8=Drive That Truck
TTITLE9=Stockcamp
TTITLE10=I'll Call it my Home
TTITLE11=South Freight Special
EXTD=ID3G:   2 YEAR: 1999
EXTT0=
EXTT1=
EXTT2=
EXTT3=
EXTT4=
EXTT5=
EXTT6=
EXTT7=
EXTT8=
EXTT9=
EXTT10=
EXTT11=
PLAYORDER=
